<svg width="184" height="160" viewBox="0 0 184 160" fill="none" xmlns="http://www.w3.org/2000/svg">
<rect x="48" y="38" width="100" height="78" rx="4" fill="#071871"/>
<path d="M40 130C62.3863 91.9895 77 63.9999 75 43.9999C75 33.9999 63 35 59 38.9999C49 48.9999 49 82.9999 61 89.9999C66.8245 92.8069 72.9984 89.5382 91 71.9999C98.3951 92.7952 103.847 96.9226 118 78.9999C124.502 88.6169 129.601 91.2781 142 89.9999" stroke="url(#paint0_linear_566_334)" stroke-width="8" stroke-linecap="round" stroke-linejoin="round"/>
<path d="M40 120L142 120" stroke="#162EAE" stroke-width="8" stroke-linecap="round"/>
<path d="M72.84 107V98.6H77.136C78.24 98.6 79.064 98.804 79.608 99.212C80.152 99.612 80.424 100.14 80.424 100.796C80.424 101.228 80.308 101.608 80.076 101.936C79.852 102.256 79.532 102.512 79.116 102.704C78.708 102.888 78.22 102.98 77.652 102.98L77.892 102.404C78.484 102.404 79 102.496 79.44 102.68C79.88 102.856 80.22 103.116 80.46 103.46C80.708 103.796 80.832 104.208 80.832 104.696C80.832 105.424 80.536 105.992 79.944 106.4C79.36 106.8 78.504 107 77.376 107H72.84ZM75.192 105.284H77.184C77.592 105.284 77.9 105.216 78.108 105.08C78.324 104.936 78.432 104.72 78.432 104.432C78.432 104.144 78.324 103.932 78.108 103.796C77.9 103.652 77.592 103.58 77.184 103.58H75.024V101.936H76.824C77.224 101.936 77.524 101.868 77.724 101.732C77.924 101.596 78.024 101.392 78.024 101.12C78.024 100.848 77.924 100.648 77.724 100.52C77.524 100.384 77.224 100.316 76.824 100.316H75.192V105.284ZM81.9547 107V100.496H84.1267V102.392L83.8027 101.852C83.9947 101.364 84.3067 101 84.7387 100.76C85.1707 100.512 85.6947 100.388 86.3107 100.388V102.44C86.2067 102.424 86.1147 102.416 86.0347 102.416C85.9627 102.408 85.8827 102.404 85.7947 102.404C85.3307 102.404 84.9547 102.532 84.6667 102.788C84.3787 103.036 84.2347 103.444 84.2347 104.012V107H81.9547ZM90.8251 107V105.788L90.6691 105.488V103.256C90.6691 102.896 90.5571 102.62 90.3331 102.428C90.1171 102.228 89.7691 102.128 89.2891 102.128C88.9771 102.128 88.6611 102.18 88.3411 102.284C88.0211 102.38 87.7491 102.516 87.5251 102.692L86.7571 101.144C87.1251 100.904 87.5651 100.72 88.0771 100.592C88.5971 100.456 89.1131 100.388 89.6251 100.388C90.6811 100.388 91.4971 100.632 92.0731 101.12C92.6571 101.6 92.9491 102.356 92.9491 103.388V107H90.8251ZM88.9051 107.108C88.3851 107.108 87.9451 107.02 87.5851 106.844C87.2251 106.668 86.9491 106.428 86.7571 106.124C86.5731 105.82 86.4811 105.48 86.4811 105.104C86.4811 104.704 86.5811 104.36 86.7811 104.072C86.9891 103.776 87.3051 103.552 87.7291 103.4C88.1531 103.24 88.7011 103.16 89.3731 103.16H90.9091V104.348H89.6851C89.3171 104.348 89.0571 104.408 88.9051 104.528C88.7611 104.648 88.6891 104.808 88.6891 105.008C88.6891 105.208 88.7651 105.368 88.9171 105.488C89.0691 105.608 89.2771 105.668 89.5411 105.668C89.7891 105.668 90.0131 105.608 90.2131 105.488C90.4211 105.36 90.5731 105.168 90.6691 104.912L90.9811 105.752C90.8611 106.2 90.6251 106.54 90.2731 106.772C89.9291 106.996 89.4731 107.108 88.9051 107.108ZM94.3883 107V100.496H96.5603V102.344L96.1403 101.804C96.3883 101.332 96.7283 100.98 97.1603 100.748C97.5923 100.508 98.0803 100.388 98.6243 100.388C99.1283 100.388 99.5843 100.492 99.9922 100.7C100.4 100.9 100.72 101.212 100.952 101.636C101.192 102.06 101.312 102.608 101.312 103.28V107H99.0323V103.652C99.0323 103.188 98.9363 102.852 98.7443 102.644C98.5603 102.428 98.3003 102.32 97.9643 102.32C97.7243 102.32 97.5043 102.376 97.3043 102.488C97.1043 102.592 96.9483 102.756 96.8363 102.98C96.7243 103.204 96.6683 103.496 96.6683 103.856V107H94.3883ZM105.658 107.108C105.066 107.108 104.526 106.972 104.038 106.7C103.558 106.42 103.174 106.032 102.886 105.536C102.598 105.032 102.454 104.432 102.454 103.736C102.454 103.048 102.598 102.456 102.886 101.96C103.174 101.456 103.558 101.068 104.038 100.796C104.526 100.524 105.066 100.388 105.658 100.388C106.218 100.388 106.69 100.508 107.074 100.748C107.466 100.988 107.762 101.356 107.962 101.852C108.162 102.348 108.262 102.976 108.262 103.736C108.262 104.512 108.166 105.148 107.974 105.644C107.782 106.14 107.494 106.508 107.11 106.748C106.726 106.988 106.242 107.108 105.658 107.108ZM106.138 105.296C106.394 105.296 106.622 105.236 106.822 105.116C107.03 104.996 107.194 104.82 107.314 104.588C107.434 104.348 107.494 104.064 107.494 103.736C107.494 103.408 107.434 103.132 107.314 102.908C107.194 102.676 107.03 102.5 106.822 102.38C106.622 102.26 106.394 102.2 106.138 102.2C105.874 102.2 105.638 102.26 105.43 102.38C105.23 102.5 105.07 102.676 104.95 102.908C104.83 103.132 104.77 103.408 104.77 103.736C104.77 104.064 104.83 104.348 104.95 104.588C105.07 104.82 105.23 104.996 105.43 105.116C105.638 105.236 105.874 105.296 106.138 105.296ZM107.566 107V105.884L107.578 103.736L107.458 101.588V98.096H109.738V107H107.566ZM115.297 107.108C114.713 107.108 114.225 106.988 113.833 106.748C113.449 106.508 113.161 106.14 112.969 105.644C112.777 105.148 112.681 104.512 112.681 103.736C112.681 102.976 112.781 102.348 112.981 101.852C113.189 101.356 113.489 100.988 113.881 100.748C114.273 100.508 114.745 100.388 115.297 100.388C115.889 100.388 116.425 100.524 116.905 100.796C117.393 101.068 117.777 101.456 118.057 101.96C118.345 102.456 118.489 103.048 118.489 103.736C118.489 104.432 118.345 105.032 118.057 105.536C117.777 106.032 117.393 106.42 116.905 106.7C116.425 106.972 115.889 107.108 115.297 107.108ZM111.205 107V98.096H113.485V101.588L113.365 103.736L113.377 105.884V107H111.205ZM114.817 105.296C115.073 105.296 115.301 105.236 115.501 105.116C115.709 104.996 115.873 104.82 115.993 104.588C116.121 104.348 116.185 104.064 116.185 103.736C116.185 103.408 116.121 103.132 115.993 102.908C115.873 102.676 115.709 102.5 115.501 102.38C115.301 102.26 115.073 102.2 114.817 102.2C114.561 102.2 114.329 102.26 114.121 102.38C113.921 102.5 113.757 102.676 113.629 102.908C113.509 103.132 113.449 103.408 113.449 103.736C113.449 104.064 113.509 104.348 113.629 104.588C113.757 104.82 113.921 104.996 114.121 105.116C114.329 105.236 114.561 105.296 114.817 105.296ZM122.812 107.108C122.1 107.108 121.468 106.964 120.916 106.676C120.364 106.388 119.928 105.992 119.608 105.488C119.296 104.976 119.14 104.392 119.14 103.736C119.14 103.08 119.296 102.5 119.608 101.996C119.928 101.492 120.364 101.1 120.916 100.82C121.468 100.532 122.1 100.388 122.812 100.388C123.524 100.388 124.156 100.532 124.708 100.82C125.268 101.1 125.704 101.492 126.016 101.996C126.328 102.5 126.484 103.08 126.484 103.736C126.484 104.392 126.328 104.976 126.016 105.488C125.704 105.992 125.268 106.388 124.708 106.676C124.156 106.964 123.524 107.108 122.812 107.108ZM122.812 105.296C123.076 105.296 123.308 105.236 123.508 105.116C123.716 104.996 123.88 104.82 124 104.588C124.12 104.348 124.18 104.064 124.18 103.736C124.18 103.408 124.12 103.132 124 102.908C123.88 102.676 123.716 102.5 123.508 102.38C123.308 102.26 123.076 102.2 122.812 102.2C122.556 102.2 122.324 102.26 122.116 102.38C121.916 102.5 121.752 102.676 121.624 102.908C121.504 103.132 121.444 103.408 121.444 103.736C121.444 104.064 121.504 104.348 121.624 104.588C121.752 104.82 121.916 104.996 122.116 105.116C122.324 105.236 122.556 105.296 122.812 105.296ZM130.805 107.108C130.093 107.108 129.461 106.964 128.909 106.676C128.357 106.388 127.921 105.992 127.601 105.488C127.289 104.976 127.133 104.392 127.133 103.736C127.133 103.08 127.289 102.5 127.601 101.996C127.921 101.492 128.357 101.1 128.909 100.82C129.461 100.532 130.093 100.388 130.805 100.388C131.517 100.388 132.149 100.532 132.701 100.82C133.261 101.1 133.697 101.492 134.009 101.996C134.321 102.5 134.477 103.08 134.477 103.736C134.477 104.392 134.321 104.976 134.009 105.488C133.697 105.992 133.261 106.388 132.701 106.676C132.149 106.964 131.517 107.108 130.805 107.108ZM130.805 105.296C131.069 105.296 131.301 105.236 131.501 105.116C131.709 104.996 131.873 104.82 131.993 104.588C132.113 104.348 132.173 104.064 132.173 103.736C132.173 103.408 132.113 103.132 131.993 102.908C131.873 102.676 131.709 102.5 131.501 102.38C131.301 102.26 131.069 102.2 130.805 102.2C130.549 102.2 130.317 102.26 130.109 102.38C129.909 102.5 129.745 102.676 129.617 102.908C129.497 103.132 129.437 103.408 129.437 103.736C129.437 104.064 129.497 104.348 129.617 104.588C129.745 104.82 129.909 104.996 130.109 105.116C130.317 105.236 130.549 105.296 130.805 105.296ZM137.429 105.8L137.489 103.076L140.141 100.496H142.841L139.901 103.532L138.737 104.468L137.429 105.8ZM135.533 107V98.096H137.813V107H135.533ZM140.309 107L138.317 104.504L139.733 102.752L143.069 107H140.309Z" fill="white"/>
<defs>
<linearGradient id="paint0_linear_566_334" x1="91.4766" y1="51.783" x2="91.4766" y2="87.5393" gradientUnits="userSpaceOnUse">
<stop stop-color="#00E6FF"/>
<stop offset="0.620192" stop-color="#4C159A"/>
<stop offset="1" stop-color="#2133A2"/>
</linearGradient>
</defs>
</svg>
