<svg width="184" height="160" viewBox="0 0 184 160" fill="none" xmlns="http://www.w3.org/2000/svg">
<rect x="54" y="43" width="92" height="74.5436" rx="4" fill="#071871"/>
<rect x="54" y="43" width="92" height="25.0051" rx="4" fill="#65E080"/>
<circle cx="61.3128" cy="53.6152" r="3.06667" fill="#20C0FF"/>
<circle cx="70.7503" cy="53.6152" r="3.06667" fill="#20C0FF"/>
<rect x="128.072" y="51.4923" width="12.7385" height="4.24615" rx="2.12308" fill="white"/>
<path d="M114.335 100.538H116.72C117.272 100.538 117.72 100.986 117.72 101.538V106C117.72 106.552 118.168 107 118.72 107H127.72C128.272 107 128.72 106.552 128.72 106V101.538C128.72 100.986 129.168 100.538 129.72 100.538H131.665C132.544 100.538 132.996 99.485 132.389 98.8484L123.724 89.7592C123.33 89.3459 122.67 89.3459 122.276 89.7592L113.611 98.8484C113.004 99.485 113.456 100.538 114.335 100.538Z" fill="white"/>
</svg>
