<svg width="184" height="160" viewBox="0 0 184 160" fill="none" xmlns="http://www.w3.org/2000/svg">
<path d="M118.733 99.3333H67.0382L54.5212 55.5238H131L118.733 99.3333Z" fill="#162EAE"/>
<path d="M39.0001 38H49.5144L54.5212 55.5238M54.5212 55.5238L67.0382 99.3333H118.733L131 55.5238H54.5212Z" stroke="#162EAE" stroke-width="8" stroke-linecap="round" stroke-linejoin="round"/>
<circle cx="70.5435" cy="117.733" r="6.13333" fill="#162EAE"/>
<circle cx="115.648" cy="118.267" r="6.13333" transform="rotate(180 115.648 118.267)" fill="#162EAE"/>
<path d="M79 63H64L68 77.5M79 63L86 92M79 63H100H104H119L112 92H99H86M86 92H72L68 77.5M105 63L98 92M68 77.5H115" stroke="white" stroke-width="3" stroke-linejoin="round"/>
</svg>
