<svg width="184" height="160" viewBox="0 0 184 160" fill="none" xmlns="http://www.w3.org/2000/svg">
<path d="M123.619 41.78C123.619 41.351 123.216 41 122.724 41H75.2762C74.7838 41 74.381 41.351 74.381 41.78V56.21H123.619V41.78ZM137.048 62.45H60.9524C56.0062 62.45 52 65.9405 52 70.25V102.23C52 103.956 53.6002 105.35 55.581 105.35H74.381V118.22C74.381 118.649 74.7838 119 75.2762 119H122.724C123.216 119 123.619 118.649 123.619 118.22V105.35H142.419C144.4 105.35 146 103.956 146 102.23V70.25C146 65.9405 141.994 62.45 137.048 62.45ZM116.01 112.37H81.9905V85.46H116.01V112.37ZM134.362 77.27C134.362 77.699 133.959 78.05 133.467 78.05H128.99C128.498 78.05 128.095 77.699 128.095 77.27V73.37C128.095 72.941 128.498 72.59 128.99 72.59H133.467C133.959 72.59 134.362 72.941 134.362 73.37V77.27Z" fill="#162EAE"/>
<rect x="82" y="85" width="36" height="28" rx="1" fill="#65E080"/>
<rect x="128" y="72" width="7" height="6" rx="1" fill="#65E080"/>
<path d="M60 79.6667C60 77 65 67 65 67C65 67 70 76.3333 70 79.6667C70 83 67.7614 85 65 85C62.2386 85 60 82.3333 60 79.6667Z" fill="white"/>
</svg>
