<svg width="184" height="160" viewBox="0 0 184 160" fill="none" xmlns="http://www.w3.org/2000/svg">
<rect x="66" y="39" width="36.9999" height="61" rx="1" fill="#162EAE"/>
<path d="M74 50H95" stroke="white" stroke-width="3" stroke-linecap="square"/>
<path d="M74 57H95" stroke="white" stroke-width="3" stroke-linecap="square"/>
<path d="M74 64H95" stroke="white" stroke-width="3" stroke-linecap="square"/>
<path d="M74 71H95" stroke="white" stroke-width="3" stroke-linecap="square"/>
<path d="M114.414 47.2L87.4714 56.5714C87.4714 56.5714 82.7856 113.971 114.414 113.971C146.043 113.971 142.529 56.5714 142.529 56.5714L114.414 47.2Z" fill="#071871"/>
<path d="M102.114 78.8285L112.657 89.3714L130.814 71.2142" stroke="#C0C0C0" stroke-linecap="round" stroke-linejoin="round"/>
<path d="M104.301 77.0451C104.034 76.7767 103.717 76.5637 103.367 76.4184C103.017 76.273 102.642 76.1982 102.263 76.1982C101.885 76.1982 101.51 76.273 101.16 76.4184C100.81 76.5637 100.492 76.7767 100.225 77.0451C99.9569 77.3123 99.7439 77.6299 99.5986 77.9796C99.4532 78.3294 99.3784 78.7044 99.3784 79.0831C99.3784 79.4618 99.4532 79.8368 99.5986 80.1866C99.7439 80.5363 99.9569 80.8539 100.225 81.1211L110.587 91.4832L110.756 91.6514C111.008 91.9046 111.309 92.1055 111.639 92.2425C111.969 92.3796 112.324 92.4502 112.681 92.4502C113.039 92.4502 113.393 92.3796 113.724 92.2425C114.054 92.1055 114.355 91.9046 114.607 91.6514L132.505 73.7539C132.758 73.5012 132.959 73.201 133.096 72.8705C133.233 72.54 133.304 72.1858 133.304 71.828C133.304 71.4703 133.233 71.116 133.096 70.7855C132.959 70.4551 132.758 70.1549 132.505 69.9022L132.281 69.6779C132.028 69.4247 131.728 69.2238 131.397 69.0868C131.067 68.9497 130.712 68.8792 130.355 68.8792C129.997 68.8792 129.643 68.9497 129.312 69.0868C128.982 69.2238 128.682 69.4247 128.429 69.6779L112.677 85.4213L104.301 77.0451Z" fill="#65E080"/>
</svg>
