<svg width="184" height="160" viewBox="0 0 184 160" fill="none" xmlns="http://www.w3.org/2000/svg">
<rect x="89" y="112" width="26" height="8" fill="#071871"/>
<rect x="56" y="41" width="89" height="71" rx="7" fill="#071871"/>
<rect x="97.8267" y="89.8069" width="5.27351" height="7.47081" rx="0.5" fill="#20C0FF"/>
<rect x="107.056" y="84.094" width="5.27351" height="13.1838" rx="0.5" fill="#20C0FF"/>
<rect x="116.284" y="77.5021" width="5.27351" height="19.7757" rx="0.5" fill="#20C0FF"/>
<rect x="127" y="66" width="5" height="32" rx="0.5" fill="#20C0FF"/>
<path d="M93 97.0581L132.112 97.4976" stroke="#20C0FF" stroke-linecap="round"/>
<circle cx="65" cy="51" r="3" fill="#65E080"/>
<circle cx="73" cy="51" r="3" fill="#65E080"/>
<circle cx="81" cy="51" r="3" fill="#65E080"/>
<path d="M74.5536 83.1429L70 88M72.8333 78.0833C72.8333 81.9953 76.0047 85.1667 79.9167 85.1667C83.8287 85.1667 87 81.9953 87 78.0833C87 74.1713 83.8287 71 79.9167 71C76.0047 71 72.8333 74.1713 72.8333 78.0833Z" stroke="white" stroke-width="4" stroke-linecap="round"/>
</svg>
