<svg width="184" height="160" viewBox="0 0 184 160" fill="none" xmlns="http://www.w3.org/2000/svg">
<rect x="60" y="36" width="92" height="74.5436" rx="4" fill="#071871"/>
<rect x="60" y="36" width="92" height="25.0051" rx="4" fill="#162EAE"/>
<circle cx="67.3128" cy="46.6152" r="3.06667" fill="#20C0FF"/>
<circle cx="76.7503" cy="46.6152" r="3.06667" fill="#20C0FF"/>
<rect x="134.072" y="44.4923" width="12.7385" height="4.24615" rx="2.12308" fill="#65E080"/>
<g filter="url(#filter0_d_566_15)">
<rect x="48" y="50" width="92" height="74.5436" rx="4" fill="#071871"/>
<rect x="48" y="50" width="92" height="25.0051" rx="4" fill="#162EAE"/>
<circle cx="55.3128" cy="60.6152" r="3.06667" fill="#65E080"/>
<circle cx="64.7503" cy="60.6152" r="3.06667" fill="#65E080"/>
<rect x="122.072" y="58.4923" width="12.7385" height="4.24615" rx="2.12308" fill="#65E080"/>
</g>
<path d="M111.335 107.538H113.72C114.272 107.538 114.72 107.986 114.72 108.538V113C114.72 113.552 115.168 114 115.72 114H124.72C125.272 114 125.72 113.552 125.72 113V108.538C125.72 107.986 126.168 107.538 126.72 107.538H128.665C129.544 107.538 129.996 106.485 129.389 105.848L120.724 96.7592C120.33 96.3459 119.67 96.3459 119.276 96.7592L110.611 105.848C110.004 106.485 110.456 107.538 111.335 107.538Z" fill="white"/>
<circle cx="105" cy="112" r="2" transform="rotate(180 105 112)" fill="white"/>
<circle cx="99" cy="112" r="2" transform="rotate(180 99 112)" fill="white"/>
<circle cx="93" cy="112" r="2" transform="rotate(180 93 112)" fill="white"/>
<defs>
<filter id="filter0_d_566_15" x="48" y="42" width="100" height="82.5436" filterUnits="userSpaceOnUse" color-interpolation-filters="sRGB">
<feFlood flood-opacity="0" result="BackgroundImageFix"/>
<feColorMatrix in="SourceAlpha" type="matrix" values="0 0 0 0 0 0 0 0 0 0 0 0 0 0 0 0 0 0 127 0" result="hardAlpha"/>
<feOffset dx="4" dy="-4"/>
<feGaussianBlur stdDeviation="2"/>
<feComposite in2="hardAlpha" operator="out"/>
<feColorMatrix type="matrix" values="0 0 0 0 0 0 0 0 0 0 0 0 0 0 0 0 0 0 0.25 0"/>
<feBlend mode="normal" in2="BackgroundImageFix" result="effect1_dropShadow_566_15"/>
<feBlend mode="normal" in="SourceGraphic" in2="effect1_dropShadow_566_15" result="shape"/>
</filter>
</defs>
</svg>
