<svg width="184" height="160" viewBox="0 0 184 160" fill="none" xmlns="http://www.w3.org/2000/svg">
<rect x="79" y="111" width="26" height="8" fill="#071871"/>
<rect x="46" y="40" width="89" height="71" rx="7" fill="#071871"/>
<path d="M100 78C100.5 81 105.965 82.7376 107.5 86C111.5 94.5 118 98.5 125 98C134.665 98 142.5 90.165 142.5 80.5C142.5 70.835 134.665 63 125 63C119.073 63 113.5 65.5 107.5 74.5C103.5 77 100.5 75.5 100 78Z" fill="#65E080"/>
<rect x="115.183" y="75" width="8" height="14" rx="1" fill="#162EAE"/>
<path d="M123.183 87.5V76.5C123.183 76.5 126.183 73.5 128.183 68C131.183 69.0001 129.183 76 129.183 76C129.183 76 130.183 75.0818 133.183 76.5C136.183 77.9182 136.361 84.6103 133.183 87.5C130.293 90.1269 123.183 87.5 123.183 87.5Z" fill="white"/>
<path d="M62.4196 82.4921C64.2874 82.6136 66.0219 83.1148 67.7273 84.3034C69.4551 85.5076 71.2375 87.4764 73.0843 90.6665L73.2462 90.9462L73.5089 91.1345C75.1291 92.2957 76.6281 92.6074 77.5124 92.8355C77.5935 92.8565 77.6655 92.8758 77.7298 92.8937C77.6904 92.9339 77.6478 92.9776 77.5991 93.0222C77.2445 93.3473 76.7666 93.6728 76.1549 94.0713C75.5814 94.445 74.8827 94.8868 74.2623 95.3789C73.7162 95.8121 73.1501 96.3441 72.7187 97.0087L72.543 97.3016C69.5505 102.699 65.3037 104.776 61.1138 104.203L61.0605 104.196L61.0079 104.192C54.9846 103.8 50.4274 98.6205 50.8169 92.6333C51.2065 86.6462 56.3964 82.1002 62.4196 82.4921Z" stroke="white" stroke-width="3"/>
<path d="M62.329 89.8778C56.9679 86.397 53.6687 94.1323 62.329 98C71.8144 94.1323 67.6904 86.397 62.329 89.8778Z" fill="white"/>
<path d="M77.6515 39.5444C79.3001 40.2786 80.6998 41.3105 81.8439 42.9539C83.0038 44.62 83.9601 47 84.5659 50.5127L84.6208 50.8312L84.8015 51.0976C85.889 52.7047 87.1539 53.4957 87.8796 53.9991C87.918 54.0258 87.9536 54.0511 87.987 54.0748C87.9602 54.0865 87.9337 54.1019 87.9044 54.1139C87.4773 54.2884 86.938 54.4233 86.2482 54.5801C85.603 54.7267 84.8172 54.8945 84.0859 55.1341C83.4421 55.345 82.7442 55.6401 82.1235 56.1032L81.8627 56.312C77.3449 60.1996 72.8125 60.6541 69.2207 58.7386L69.1733 58.7132L69.1251 58.6917C63.8103 56.325 61.4209 50.1193 63.773 44.8368C66.1253 39.5542 72.3366 37.1776 77.6515 39.5444Z" stroke="#20C0FF" stroke-width="3"/>
<path d="M72.06 43.8069L69.8449 54.5816" stroke="#20C0FF" stroke-width="2" stroke-linecap="round"/>
<path d="M76.5696 43.6336L74.3546 54.4083" stroke="#20C0FF" stroke-width="2" stroke-linecap="round"/>
<path d="M79.1699 47.6245L68.1706 47.756" stroke="#20C0FF" stroke-width="2" stroke-linecap="round"/>
<path d="M78.228 51.6386L67.2288 51.7701" stroke="#20C0FF" stroke-width="2" stroke-linecap="round"/>
</svg>
