<svg width="55" height="55" viewBox="0 0 55 55" fill="none" xmlns="http://www.w3.org/2000/svg">
<path d="M54.6606 18.3795L41.698 1.95542C41.6593 1.90725 41.6107 1.86834 41.5555 1.84148C41.5003 1.81462 41.4399 1.80047 41.3787 1.80005H15.1213C15 1.80005 14.8787 1.85831 14.802 1.95542L1.83938 18.3795C1.77936 18.4565 1.74779 18.5524 1.75012 18.6505C1.75245 18.7486 1.78854 18.8429 1.85215 18.9169L27.9435 48.6641C28.0201 48.7547 28.1351 48.8 28.25 48.8C28.3649 48.8 28.4735 48.7483 28.5565 48.6641L54.6479 18.9169C54.7115 18.8429 54.7475 18.7486 54.7499 18.6505C54.7522 18.5524 54.7206 18.4565 54.6606 18.3795ZM35.2088 5.51603C36.1185 5.51603 36.912 6.13359 37.1355 7.0154C37.6346 8.98509 35.2057 10.3461 33.7864 8.89196C32.5576 7.63304 33.4496 5.51603 35.2088 5.51603ZM33.1349 12.8256C34.6803 14.4091 33.5584 17.0718 31.3458 17.0718H25.1542C22.9416 17.0718 21.8197 14.4091 23.3651 12.8256L26.4609 9.65378C27.4419 8.64868 29.0581 8.64868 30.0391 9.65378L33.1349 12.8256ZM19.3638 7.01373C19.5877 6.13277 20.3808 5.51603 21.2898 5.51603C23.0489 5.51603 23.9405 7.63332 22.7113 8.89175C21.2916 10.3452 18.8634 8.98297 19.3638 7.01373ZM10.2477 13.683C11.6468 11.91 14.4741 13.3045 13.9188 15.4937C13.6834 16.4219 12.848 17.0718 11.8905 17.0718C10.1423 17.0718 9.16481 15.0553 10.2477 13.683ZM11.0876 23.8501C9.87793 22.4706 10.8576 20.3087 12.6923 20.3087C13.5001 20.3087 14.2387 20.7648 14.6005 21.4871C15.7219 23.7255 12.7382 25.7325 11.0876 23.8501ZM30.4846 37.1134C29.5629 38.9538 26.9365 38.9541 26.0143 37.114L19.4067 23.9288C18.5736 22.2664 19.7823 20.3087 21.6417 20.3087H34.853C36.7122 20.3087 37.9209 22.2659 37.0883 23.9283L30.4846 37.1134ZM45.4112 23.8499C43.7604 25.7318 40.7775 23.7241 41.8994 21.4863C42.2613 20.7645 42.9996 20.3087 43.807 20.3087C45.6417 20.3087 46.6211 22.4707 45.4112 23.8499ZM44.6095 17.0718C43.652 17.0718 42.8166 16.4219 42.5812 15.4937C42.0259 13.3045 44.8532 11.91 46.2523 13.683C47.3352 15.0553 46.3577 17.0718 44.6095 17.0718Z" fill="#162EAE"/>
<path d="M33.1349 12.8256C34.6803 14.4091 33.5584 17.0718 31.3458 17.0718H25.1542C22.9416 17.0718 21.8197 14.4091 23.3651 12.8256L26.4609 9.65378C27.4419 8.64868 29.0581 8.64868 30.0391 9.65378L33.1349 12.8256Z" fill="#162EAE"/>
<path d="M19.3638 7.01373C19.5877 6.13277 20.3808 5.51603 21.2898 5.51603C23.0489 5.51603 23.9405 7.63332 22.7113 8.89175C21.2916 10.3452 18.8634 8.98297 19.3638 7.01373Z" fill="#162EAE"/>
<path d="M10.2477 13.683C11.6468 11.91 14.4741 13.3045 13.9188 15.4937C13.6834 16.4219 12.848 17.0718 11.8905 17.0718C10.1423 17.0718 9.16481 15.0553 10.2477 13.683Z" fill="#162EAE"/>
<path d="M11.0876 23.8501C9.87793 22.4706 10.8576 20.3087 12.6923 20.3087C13.5001 20.3087 14.2387 20.7648 14.6005 21.4871C15.7219 23.7255 12.7382 25.7325 11.0876 23.8501Z" fill="#162EAE"/>
<path d="M30.4846 37.1134C29.5629 38.9538 26.9365 38.9541 26.0143 37.114L19.4067 23.9288C18.5736 22.2664 19.7823 20.3087 21.6417 20.3087H34.853C36.7122 20.3087 37.9209 22.2659 37.0883 23.9283L30.4846 37.1134Z" fill="#162EAE"/>
<path d="M35.2088 5.51603C36.1185 5.51603 36.912 6.13359 37.1355 7.0154C37.6346 8.98509 35.2057 10.3461 33.7864 8.89196C32.5576 7.63304 33.4496 5.51603 35.2088 5.51603Z" fill="#162EAE"/>
<path d="M44.6095 17.0718C43.652 17.0718 42.8166 16.4219 42.5812 15.4937C42.0259 13.3045 44.8532 11.91 46.2523 13.683C47.3352 15.0553 46.3577 17.0718 44.6095 17.0718Z" fill="#162EAE"/>
<path d="M45.4112 23.8499C43.7604 25.7318 40.7775 23.7241 41.8994 21.4863C42.2613 20.7645 42.9996 20.3087 43.807 20.3087C45.6417 20.3087 46.6211 22.4707 45.4112 23.8499Z" fill="#162EAE"/>
<path d="M43.0264 19.4661L35.4059 11.0793C35.3831 11.0547 35.3545 11.0349 35.3221 11.0212C35.2896 11.0074 35.2541 11.0002 35.2182 11H19.7818C19.7105 11 19.6392 11.0298 19.5941 11.0793L11.9736 19.4661C11.9383 19.5054 11.9198 19.5544 11.9211 19.6045C11.9225 19.6546 11.9437 19.7027 11.9811 19.7405L27.3198 34.9306C27.3649 34.9769 27.4324 35 27.5 35C27.5676 35 27.6314 34.9736 27.6802 34.9306L43.0189 19.7405C43.0563 19.7027 43.0775 19.6546 43.0789 19.6045C43.0802 19.5544 43.0617 19.5054 43.0264 19.4661ZM32.5003 12.8975L33.7916 17.324L28.8176 12.8975H32.5003ZM32.8081 18.7983H22.1919L27.5 14.0744L32.8081 18.7983ZM22.4997 12.8975H26.1824L21.2046 17.324L22.4997 12.8975ZM20.4951 13.1289L18.8396 18.7983H15.3447L20.4951 13.1289ZM15.5849 20.4512H19.1287L23.8511 28.6397L15.5849 20.4512ZM27.5 31.3107L21.2346 20.4512H33.7616L27.5 31.3107ZM31.1451 28.6397L35.8713 20.4512H39.4151L31.1451 28.6397ZM36.1604 18.7983L34.5049 13.1289L39.6553 18.7983H36.1604Z" fill="white"/>
</svg>
