<svg width="24" height="24" viewBox="0 0 24 24" fill="none" xmlns="http://www.w3.org/2000/svg">
<path fill-rule="evenodd" clip-rule="evenodd" d="M18.7472 3.89785C18.7478 3.89801 18.7483 3.89827 18.7492 3.89923L20.1013 5.25134C20.1023 5.2523 20.1025 5.25275 20.1027 5.25331C20.1029 5.25383 20.1029 5.25441 20.1027 5.25493C20.1025 5.25547 20.1023 5.25591 20.1013 5.25687L13.3583 11.9999L20.1013 18.743C20.1023 18.7439 20.1025 18.7444 20.1027 18.7449C20.1029 18.7454 20.1029 18.746 20.1027 18.7465C20.1025 18.7471 20.1023 18.7475 20.1013 18.7485L18.7492 20.1006C18.7483 20.1016 18.7478 20.1018 18.7472 20.102C18.7467 20.1022 18.7462 20.1022 18.7456 20.102C18.7451 20.1018 18.7446 20.1016 18.7437 20.1006L12.0006 13.3576L5.2576 20.1006C5.25667 20.1016 5.2562 20.1018 5.25566 20.102C5.25512 20.1021 5.25455 20.1021 5.25402 20.102C5.2535 20.1018 5.25303 20.1016 5.25207 20.1006L3.89996 18.7485C3.899 18.7475 3.89875 18.7471 3.89858 18.7465C3.89839 18.746 3.89839 18.7454 3.89858 18.7449C3.89875 18.7444 3.899 18.7439 3.89996 18.743L10.643 11.9999L3.89996 5.25687C3.899 5.25593 3.89875 5.25547 3.89858 5.25493C3.89842 5.25439 3.89842 5.25382 3.89858 5.25329C3.89875 5.25277 3.899 5.2523 3.89996 5.25134L5.25207 3.89923C5.25303 3.89827 5.25348 3.89801 5.25404 3.89785C5.25456 3.89766 5.25514 3.89766 5.25566 3.89785C5.2562 3.89801 5.25664 3.89827 5.2576 3.89923L12.0006 10.6422L18.7437 3.89923C18.7446 3.89827 18.7451 3.89801 18.7456 3.89785C18.7462 3.89769 18.7467 3.89769 18.7473 3.89785H18.7472Z" fill="#CBCDE4"/>
</svg>
