<svg width="24" height="24" viewBox="0 0 24 24" fill="none" xmlns="http://www.w3.org/2000/svg">
<path d="M21.1406 4.26562H2.85938C2.47046 4.26562 2.15625 4.57983 2.15625 4.96875V19.0312C2.15625 19.4202 2.47046 19.7344 2.85938 19.7344H21.1406C21.5295 19.7344 21.8438 19.4202 21.8438 19.0312V4.96875C21.8438 4.57983 21.5295 4.26562 21.1406 4.26562ZM20.2617 6.7002V18.1523H3.73828V6.7002L3.13184 6.22778L3.99536 5.11816L4.93579 5.84985H19.0664L20.0068 5.11816L20.8704 6.22778L20.2617 6.7002ZM19.0664 5.84766L12 11.3408L4.93359 5.84766L3.99316 5.11597L3.12964 6.22559L3.73608 6.698L11.2419 12.5339C11.4578 12.7016 11.7234 12.7927 11.9967 12.7927C12.27 12.7927 12.5356 12.7016 12.7515 12.5339L20.2617 6.7002L20.8682 6.22778L20.0046 5.11816L19.0664 5.84766Z" fill="#071871"/>
</svg>
