<svg width="43" height="38" viewBox="0 0 43 38" fill="none" xmlns="http://www.w3.org/2000/svg">
<path fill-rule="evenodd" clip-rule="evenodd" d="M9.71473 23.2084C9.80483 23.2361 9.89671 23.2577 9.98973 23.273C10.5792 24.6618 11.1653 26.0521 11.7481 27.4438C12.796 29.948 13.8522 32.5271 14.0835 33.2688C14.3731 34.1813 14.6772 34.8021 15.0106 35.2271C15.1835 35.4438 15.3814 35.6355 15.6147 35.7813C15.7372 35.8556 15.8671 35.917 16.0022 35.9646C16.6689 36.2146 17.2772 36.1105 17.6585 35.9834C17.8823 35.9073 18.0952 35.8023 18.2918 35.6709L18.3022 35.6667L24.1897 31.9959L30.9918 37.2084C31.0918 37.2848 31.2001 37.3494 31.3168 37.4021C32.1335 37.7563 32.9252 37.8813 33.671 37.7813C34.4127 37.6771 35.0022 37.3667 35.4418 37.0146C35.9461 36.6074 36.3485 36.088 36.6168 35.498L36.6356 35.4521L36.6418 35.4355L36.646 35.4271V35.423L36.6481 35.4209C36.6822 35.3306 36.7101 35.238 36.7314 35.1438L42.9397 3.84172C42.9569 3.74118 42.9666 3.63952 42.9689 3.53755C42.9689 2.62089 42.6231 1.74797 41.8126 1.22089C41.1168 0.768803 40.3439 0.747969 39.8543 0.785469C39.3293 0.827136 38.8418 0.956302 38.5147 1.06047C38.332 1.11949 38.1513 1.1848 37.9731 1.2563L37.9501 1.26672L3.12931 14.9251L3.12515 14.9271C3.00707 14.9698 2.89098 15.0178 2.77723 15.0709C2.50101 15.1948 2.23611 15.3426 1.98556 15.5126C1.51265 15.8355 0.423063 16.723 0.60848 18.1896C0.754313 19.3563 1.55431 20.0751 2.0439 20.4209C2.31056 20.6105 2.56473 20.7459 2.75223 20.8355C2.83556 20.8771 3.01473 20.948 3.09181 20.9813L3.11265 20.9876L9.71473 23.2084ZM39.1689 4.14172H39.1647L39.1106 4.16464L4.24806 17.8417L4.1939 17.8626L4.17306 17.8688C4.10923 17.8935 4.04666 17.9213 3.98556 17.9521C4.04381 17.9849 4.10361 18.0147 4.16473 18.0417L10.7106 20.2459C10.8261 20.2887 10.9377 20.3417 11.0439 20.4042L32.6626 7.74797L32.6835 7.73755C32.7679 7.6873 32.8541 7.64005 32.9418 7.59589C33.0918 7.5188 33.3314 7.4063 33.6022 7.32297C33.7897 7.26464 34.346 7.10005 34.946 7.2938C35.2647 7.39324 35.5489 7.58076 35.7656 7.83474C35.9824 8.08872 36.1229 8.39881 36.171 8.72922C36.2486 9.01829 36.2507 9.32242 36.1772 9.61255C36.0314 10.1855 35.6314 10.6313 35.2668 10.973C34.9543 11.2646 30.9002 15.173 26.9022 19.0313L21.4585 24.2813L20.4897 25.2188L32.7231 34.598C32.8883 34.667 33.0675 34.6955 33.246 34.6813C33.3358 34.669 33.4204 34.6314 33.4897 34.573C33.5741 34.5016 33.6465 34.4172 33.7043 34.323L33.7085 34.3209L39.7293 3.96047C39.5399 4.0071 39.3541 4.06697 39.1731 4.13964L39.1689 4.14172ZM21.5418 29.9626L19.1001 28.0917L18.5085 31.8521L21.5418 29.9626ZM16.8606 24.3792L19.2876 22.0355L24.7314 16.7813L26.7585 14.8271L13.1751 22.7792L13.2481 22.9501C14.1047 24.9739 14.952 27.0017 15.7897 29.0334L16.3793 25.2834C16.4331 24.9357 16.6027 24.6185 16.8606 24.3792Z" fill="url(#paint0_linear_215_1636)"/>
<defs>
<linearGradient id="paint0_linear_215_1636" x1="21.9762" y1="6.94656" x2="21.9762" y2="21.0577" gradientUnits="userSpaceOnUse">
<stop stop-color="#20C0FF"/>
<stop offset="0.620192" stop-color="#2A0671"/>
<stop offset="1" stop-color="#162EAE"/>
</linearGradient>
</defs>
</svg>
