<svg width="32" height="32" viewBox="0 0 32 32" fill="none" xmlns="http://www.w3.org/2000/svg">
<path fill-rule="evenodd" clip-rule="evenodd" d="M7.71734 18.6936C7.775 18.7114 7.8338 18.7252 7.89334 18.735C8.27057 19.6239 8.64568 20.5136 9.01867 21.4043C9.68934 23.007 10.3653 24.6576 10.5133 25.1323C10.6987 25.7163 10.8933 26.1136 11.1067 26.3856C11.2173 26.5243 11.344 26.647 11.4933 26.7403C11.5717 26.7878 11.6549 26.8272 11.7413 26.8576C12.168 27.0176 12.5573 26.951 12.8013 26.8696C12.9446 26.821 13.0809 26.7537 13.2067 26.6696L13.2133 26.667L16.9813 24.3176L21.3347 27.6536C21.3987 27.7025 21.468 27.7439 21.5427 27.7776C22.0653 28.0043 22.572 28.0843 23.0493 28.0203C23.524 27.9536 23.9013 27.755 24.1827 27.5296C24.5054 27.269 24.7629 26.9366 24.9347 26.559L24.9467 26.5296L24.9507 26.519L24.9533 26.5136V26.511L24.9547 26.5096C24.9765 26.4518 24.9944 26.3926 25.008 26.3323L28.9813 6.29897C28.9923 6.23463 28.9986 6.16957 29 6.10431C29 5.51764 28.7787 4.95897 28.26 4.62164C27.8147 4.33231 27.32 4.31897 27.0067 4.34297C26.6707 4.36964 26.3587 4.45231 26.1493 4.51897C26.0324 4.55674 25.9167 4.59855 25.8027 4.64431L25.788 4.65097L3.50267 13.3923L3.5 13.3936C3.42443 13.4209 3.35013 13.4516 3.27734 13.4856C3.10055 13.565 2.93102 13.6595 2.77067 13.7683C2.468 13.975 1.77067 14.543 1.88934 15.4816C1.98267 16.2283 2.49467 16.6883 2.808 16.9096C2.97867 17.031 3.14134 17.1176 3.26134 17.175C3.31467 17.2016 3.42934 17.247 3.47867 17.2683L3.492 17.2723L7.71734 18.6936ZM26.568 6.49097H26.5653L26.5307 6.50564L4.21867 15.259L4.184 15.2723L4.17067 15.2763C4.12982 15.2921 4.08977 15.3099 4.05067 15.3296C4.08795 15.3506 4.12622 15.3697 4.16534 15.387L8.35467 16.7976C8.42864 16.825 8.50003 16.859 8.568 16.899L22.404 8.79897L22.4173 8.79231C22.4714 8.76015 22.5265 8.7299 22.5827 8.70164C22.6787 8.65231 22.832 8.58031 23.0053 8.52697C23.1253 8.48964 23.4813 8.38431 23.8653 8.50831C24.0693 8.57195 24.2512 8.69196 24.3899 8.85451C24.5286 9.01706 24.6186 9.21551 24.6493 9.42697C24.699 9.61198 24.7004 9.80662 24.6533 9.99231C24.56 10.359 24.304 10.6443 24.0707 10.863C23.8707 11.0496 21.276 13.551 18.7173 16.0203L15.2333 19.3803L14.6133 19.9803L22.4427 25.983C22.5484 26.0271 22.6631 26.0454 22.7773 26.0363C22.8349 26.0284 22.8889 26.0044 22.9333 25.967C22.9873 25.9213 23.0337 25.8673 23.0707 25.807L23.0733 25.8056L26.9267 6.37497C26.8055 6.40482 26.6865 6.44313 26.5707 6.48964L26.568 6.49097ZM15.2867 23.0163L13.724 21.819L13.3453 24.2256L15.2867 23.0163ZM12.2907 19.443L13.844 17.943L17.328 14.5803L18.6253 13.3296L9.932 18.419L9.97867 18.5283C10.5269 19.8235 11.0692 21.1213 11.6053 22.4216L11.9827 20.0216C12.0171 19.7991 12.1256 19.5961 12.2907 19.443Z" fill="#162EAE"/>
</svg>
