<svg width="32" height="32" viewBox="0 0 32 32" fill="none" xmlns="http://www.w3.org/2000/svg">
<path d="M18.6667 14.3321V9.40413C18.6667 8.29347 18.4653 8.0708 17.36 8.0708L14.2267 8.00013C13.2507 8.00013 12.7627 8.00013 12.5653 8.31613C12.368 8.63213 12.5867 9.06547 13.0227 9.92947C13.2653 10.4095 13.396 10.7575 13.396 11.2961V14.8428C13.396 15.9628 13.396 16.5241 12.9693 16.6908C12.5427 16.8561 12.1893 16.4801 11.48 15.7281C9.74667 13.8828 8.84267 11.5788 8.24934 9.0668C8.12667 8.5468 8.06534 8.2868 7.88134 8.1428C7.69734 7.9988 7.43467 8.00013 6.912 8.00013H3.97867C3.336 8.00013 3.01467 8.00013 2.81333 8.2268C2.61333 8.4548 2.652 8.74547 2.72934 9.32547C3.43334 14.5615 8.03733 23.1468 16.5427 23.9655C18.0493 24.1095 18.6667 23.7028 18.6667 22.0521C18.6667 21.1161 18.6467 19.6041 19.824 19.4055C20.4413 19.3015 20.856 19.5215 21.5453 20.0988C22.74 21.1015 23.3667 22.3255 23.8027 23.2548C24.092 23.8708 24.3067 24.0001 24.9867 24.0001H27.752C29.1493 24.0001 29.5293 23.6588 28.9067 22.3468C28.203 20.8754 27.2067 19.5629 25.9787 18.4895C25.1307 17.7601 24.708 17.3961 24.6853 17.1268C24.66 16.8588 24.9707 16.4788 25.592 15.7188C26.792 14.2495 28.4267 11.9441 29.1893 9.49747C29.568 8.28413 29.212 8.00013 27.984 8.00013H25.5C24.296 8.00013 24.2973 7.9588 24.0133 9.32413C23.552 11.5388 22.0427 13.6681 20.624 15.1175C19.9507 15.8055 19.544 16.2201 19.124 16.0508C18.704 15.8815 18.6667 15.3668 18.6667 14.3321Z" stroke="#162EAE" stroke-width="2" stroke-linecap="round" stroke-linejoin="round"/>
</svg>
