<svg width="51" height="50" viewBox="0 0 51 50" fill="none" xmlns="http://www.w3.org/2000/svg">
<path d="M29.5102 22.3937V14.6937C29.5102 12.9583 29.1956 12.6104 27.4686 12.6104L22.5727 12.5C21.0477 12.5 20.2852 12.5 19.9769 12.9937C19.6686 13.4875 20.0102 14.1645 20.6915 15.5146C21.0706 16.2646 21.2748 16.8083 21.2748 17.65V23.1916C21.2748 24.9416 21.2748 25.8187 20.6081 26.0791C19.9415 26.3375 19.3894 25.75 18.2811 24.575C15.5727 21.6916 14.1602 18.0916 13.2331 14.1666C13.0415 13.3541 12.9456 12.9479 12.6581 12.7229C12.3706 12.4979 11.9602 12.5 11.1436 12.5H6.56023C5.55606 12.5 5.05398 12.5 4.7394 12.8541C4.4269 13.2104 4.48731 13.6645 4.60815 14.5708C5.70815 22.7521 12.9019 36.1666 26.1915 37.4458C28.5456 37.6708 29.5102 37.0354 29.5102 34.4562C29.5102 32.9937 29.479 30.6312 31.3186 30.3208C32.2831 30.1583 32.9311 30.5021 34.0081 31.4041C35.8748 32.9708 36.854 34.8833 37.5352 36.3354C37.9873 37.2979 38.3227 37.5 39.3852 37.5H43.7061C45.8894 37.5 46.4831 36.9666 45.5102 34.9166C44.4107 32.6176 42.854 30.5668 40.9352 28.8896C39.6102 27.75 38.9498 27.1812 38.9144 26.7604C38.8748 26.3416 39.3602 25.7479 40.3311 24.5604C42.2061 22.2645 44.7602 18.6625 45.9519 14.8396C46.5436 12.9437 45.9873 12.5 44.0686 12.5H40.1873C38.3061 12.5 38.3081 12.4354 37.8644 14.5687C37.1436 18.0291 34.7852 21.3562 32.5686 23.6208C31.5165 24.6958 30.8811 25.3437 30.2248 25.0791C29.5686 24.8146 29.5102 24.0104 29.5102 22.3937Z" stroke="url(#paint0_linear_215_1637)" stroke-width="3.125" stroke-linecap="round" stroke-linejoin="round"/>
<defs>
<linearGradient id="paint0_linear_215_1637" x1="25.5383" y1="16.6665" x2="25.5383" y2="26.1903" gradientUnits="userSpaceOnUse">
<stop stop-color="#20C0FF"/>
<stop offset="0.620192" stop-color="#2A0671"/>
<stop offset="1" stop-color="#162EAE"/>
</linearGradient>
</defs>
</svg>
