<svg width="97" height="43" viewBox="0 0 97 43" fill="none" xmlns="http://www.w3.org/2000/svg">
<path d="M9.71137 22.42C8.51137 22.42 7.36137 22.32 6.26137 22.12C5.16137 21.94 4.16137 21.68 3.26137 21.34C2.36137 20.98 1.59137 20.59 0.951367 20.17L3.29137 15.73C4.01137 16.17 4.75137 16.55 5.51137 16.87C6.29137 17.17 7.08137 17.4 7.88137 17.56C8.68137 17.72 9.48137 17.8 10.2814 17.8C11.0414 17.8 11.6914 17.73 12.2314 17.59C12.7714 17.43 13.1814 17.21 13.4614 16.93C13.7414 16.65 13.8814 16.32 13.8814 15.94C13.8814 15.52 13.6914 15.19 13.3114 14.95C12.9514 14.69 12.4714 14.47 11.8714 14.29C11.2714 14.11 10.6014 13.93 9.86137 13.75C9.14137 13.55 8.41137 13.32 7.67137 13.06C6.95137 12.78 6.29137 12.44 5.69137 12.04C5.09137 11.62 4.60137 11.09 4.22137 10.45C3.86137 9.81 3.68137 9.02 3.68137 8.08C3.68137 6.56 4.09137 5.24 4.91137 4.12C5.73137 3 6.89137 2.13 8.39137 1.51C9.91137 0.889999 11.7014 0.579999 13.7614 0.579999C15.2614 0.579999 16.6614 0.739999 17.9614 1.06C19.2614 1.36 20.3814 1.8 21.3214 2.38L19.1614 6.79C18.3414 6.27 17.4314 5.88 16.4314 5.62C15.4514 5.34 14.4414 5.2 13.4014 5.2C12.6014 5.2 11.9114 5.29 11.3314 5.47C10.7714 5.65 10.3414 5.9 10.0414 6.22C9.76137 6.52 9.62137 6.86 9.62137 7.24C9.62137 7.64 9.80137 7.97 10.1614 8.23C10.5214 8.49 11.0014 8.71 11.6014 8.89C12.2214 9.07 12.8914 9.26 13.6114 9.46C14.3514 9.64 15.0814 9.86 15.8014 10.12C16.5214 10.36 17.1914 10.69 17.8114 11.11C18.4314 11.51 18.9214 12.02 19.2814 12.64C19.6414 13.26 19.8214 14.03 19.8214 14.95C19.8214 16.45 19.4114 17.76 18.5914 18.88C17.7714 20 16.6014 20.87 15.0814 21.49C13.5614 22.11 11.7714 22.42 9.71137 22.42ZM39.5152 0.999999H45.4552L41.2552 22H35.3152L39.5152 0.999999ZM27.2452 22H21.3052L25.5052 0.999999H31.4452L27.2452 22ZM37.3852 13.81H28.4752L29.4652 8.89H38.3752L37.3852 13.81ZM45.4751 22L49.6751 0.999999H55.6151L51.4151 22H45.4751ZM63.5011 10.21H73.1911L72.2611 14.8H62.6011L63.5011 10.21ZM61.5811 22H55.6411L59.8411 0.999999H76.2811L75.3511 5.59H64.8511L61.5811 22ZM79.4757 22L82.7457 5.71H76.2957L77.2557 0.999999H96.0657L95.1057 5.71H88.6857L85.4157 22H79.4757Z" fill="url(#paint0_linear_101_1773)"/>
<path d="M21.0798 42.08C20.2478 42.08 19.5011 41.8987 18.8398 41.536C18.1891 41.1627 17.6771 40.656 17.3038 40.016C16.9305 39.3653 16.7438 38.624 16.7438 37.792C16.7438 36.9493 16.9305 36.208 17.3038 35.568C17.6771 34.928 18.1891 34.4267 18.8398 34.064C19.5011 33.7013 20.2478 33.52 21.0798 33.52C21.7945 33.52 22.4398 33.6587 23.0158 33.936C23.5918 34.2133 24.0451 34.6293 24.3758 35.184L23.5278 35.76C23.2398 35.3333 22.8825 35.0187 22.4558 34.816C22.0291 34.6133 21.5651 34.512 21.0638 34.512C20.4665 34.512 19.9278 34.6507 19.4478 34.928C18.9678 35.1947 18.5891 35.5733 18.3118 36.064C18.0345 36.5547 17.8958 37.1307 17.8958 37.792C17.8958 38.4533 18.0345 39.0293 18.3118 39.52C18.5891 40.0107 18.9678 40.3947 19.4478 40.672C19.9278 40.9387 20.4665 41.072 21.0638 41.072C21.5651 41.072 22.0291 40.9707 22.4558 40.768C22.8825 40.5653 23.2398 40.256 23.5278 39.84L24.3758 40.416C24.0451 40.96 23.5918 41.376 23.0158 41.664C22.4398 41.9413 21.7945 42.08 21.0798 42.08ZM26.6074 42V33.6H27.6954V35.888L27.5834 35.488C27.8181 34.848 28.2128 34.3627 28.7674 34.032C29.3221 33.6907 30.0101 33.52 30.8314 33.52V34.624C30.7888 34.624 30.7461 34.624 30.7034 34.624C30.6608 34.6133 30.6181 34.608 30.5754 34.608C29.6901 34.608 28.9968 34.88 28.4954 35.424C27.9941 35.9573 27.7434 36.72 27.7434 37.712V42H26.6074ZM36.3942 42.08C35.5195 42.08 34.7515 41.8987 34.0902 41.536C33.4289 41.1627 32.9115 40.656 32.5382 40.016C32.1649 39.3653 31.9782 38.624 31.9782 37.792C31.9782 36.96 32.1542 36.224 32.5062 35.584C32.8689 34.944 33.3595 34.4427 33.9782 34.08C34.6075 33.7067 35.3115 33.52 36.0902 33.52C36.8795 33.52 37.5782 33.7013 38.1862 34.064C38.8049 34.416 39.2902 34.9173 39.6422 35.568C39.9942 36.208 40.1702 36.9493 40.1702 37.792C40.1702 37.8453 40.1649 37.904 40.1542 37.968C40.1542 38.0213 40.1542 38.08 40.1542 38.144H32.8422V37.296H39.5462L39.0982 37.632C39.0982 37.024 38.9649 36.4853 38.6982 36.016C38.4422 35.536 38.0902 35.1627 37.6422 34.896C37.1942 34.6293 36.6769 34.496 36.0902 34.496C35.5142 34.496 34.9969 34.6293 34.5382 34.896C34.0795 35.1627 33.7222 35.536 33.4662 36.016C33.2102 36.496 33.0822 37.0453 33.0822 37.664V37.84C33.0822 38.48 33.2209 39.0453 33.4982 39.536C33.7862 40.016 34.1809 40.3947 34.6822 40.672C35.1942 40.9387 35.7755 41.072 36.4262 41.072C36.9382 41.072 37.4129 40.9813 37.8502 40.8C38.2982 40.6187 38.6822 40.3413 39.0022 39.968L39.6422 40.704C39.2689 41.152 38.7995 41.4933 38.2342 41.728C37.6795 41.9627 37.0662 42.08 36.3942 42.08ZM47.5121 42V40.144L47.4641 39.84V36.736C47.4641 36.0213 47.2614 35.472 46.8561 35.088C46.4614 34.704 45.8694 34.512 45.0801 34.512C44.5361 34.512 44.0187 34.6027 43.5281 34.784C43.0374 34.9653 42.6214 35.2053 42.2801 35.504L41.7681 34.656C42.1947 34.2933 42.7067 34.016 43.3041 33.824C43.9014 33.6213 44.5307 33.52 45.1921 33.52C46.2801 33.52 47.1174 33.792 47.7041 34.336C48.3014 34.8693 48.6001 35.6853 48.6001 36.784V42H47.5121ZM44.6161 42.08C43.9867 42.08 43.4374 41.9787 42.9681 41.776C42.5094 41.5627 42.1574 41.2747 41.9121 40.912C41.6667 40.5387 41.5441 40.112 41.5441 39.632C41.5441 39.1947 41.6454 38.8 41.8481 38.448C42.0614 38.0853 42.4027 37.7973 42.8721 37.584C43.3521 37.36 43.9921 37.248 44.7921 37.248H47.6881V38.096H44.8241C44.0134 38.096 43.4481 38.24 43.1281 38.528C42.8187 38.816 42.6641 39.1733 42.6641 39.6C42.6641 40.08 42.8507 40.464 43.2241 40.752C43.5974 41.04 44.1201 41.184 44.7921 41.184C45.4321 41.184 45.9814 41.04 46.4401 40.752C46.9094 40.4533 47.2507 40.0267 47.4641 39.472L47.7201 40.256C47.5067 40.8107 47.1334 41.2533 46.6001 41.584C46.0774 41.9147 45.4161 42.08 44.6161 42.08ZM54.3416 42.08C53.5522 42.08 52.9442 41.8667 52.5176 41.44C52.0909 41.0133 51.8776 40.4107 51.8776 39.632V31.744H53.0136V39.568C53.0136 40.0587 53.1362 40.4373 53.3816 40.704C53.6376 40.9707 54.0002 41.104 54.4696 41.104C54.9709 41.104 55.3869 40.96 55.7176 40.672L56.1176 41.488C55.8936 41.6907 55.6216 41.84 55.3016 41.936C54.9922 42.032 54.6722 42.08 54.3416 42.08ZM50.3736 34.544V33.6H55.5736V34.544H50.3736ZM58.1856 42V33.6H59.3216V42H58.1856ZM58.7616 31.744C58.5269 31.744 58.3296 31.664 58.1696 31.504C58.0096 31.344 57.9296 31.152 57.9296 30.928C57.9296 30.704 58.0096 30.5173 58.1696 30.368C58.3296 30.208 58.5269 30.128 58.7616 30.128C58.9962 30.128 59.1936 30.2027 59.3536 30.352C59.5136 30.5013 59.5936 30.688 59.5936 30.912C59.5936 31.1467 59.5136 31.344 59.3536 31.504C59.2042 31.664 59.0069 31.744 58.7616 31.744ZM64.6424 42L60.9144 33.6H62.0984L65.5224 41.392H64.9624L68.4344 33.6H69.5544L65.8104 42H64.6424ZM74.4879 42.08C73.6133 42.08 72.8453 41.8987 72.1839 41.536C71.5226 41.1627 71.0053 40.656 70.6319 40.016C70.2586 39.3653 70.0719 38.624 70.0719 37.792C70.0719 36.96 70.2479 36.224 70.5999 35.584C70.9626 34.944 71.4533 34.4427 72.0719 34.08C72.7013 33.7067 73.4053 33.52 74.1839 33.52C74.9733 33.52 75.6719 33.7013 76.2799 34.064C76.8986 34.416 77.3839 34.9173 77.7359 35.568C78.0879 36.208 78.2639 36.9493 78.2639 37.792C78.2639 37.8453 78.2586 37.904 78.2479 37.968C78.2479 38.0213 78.2479 38.08 78.2479 38.144H70.9359V37.296H77.6399L77.1919 37.632C77.1919 37.024 77.0586 36.4853 76.7919 36.016C76.5359 35.536 76.1839 35.1627 75.7359 34.896C75.2879 34.6293 74.7706 34.496 74.1839 34.496C73.6079 34.496 73.0906 34.6293 72.6319 34.896C72.1733 35.1627 71.8159 35.536 71.5599 36.016C71.3039 36.496 71.1759 37.0453 71.1759 37.664V37.84C71.1759 38.48 71.3146 39.0453 71.5919 39.536C71.8799 40.016 72.2746 40.3947 72.7759 40.672C73.2879 40.9387 73.8693 41.072 74.5199 41.072C75.0319 41.072 75.5066 40.9813 75.9439 40.8C76.3919 40.6187 76.7759 40.3413 77.0959 39.968L77.7359 40.704C77.3626 41.152 76.8933 41.4933 76.3279 41.728C75.7733 41.9627 75.1599 42.08 74.4879 42.08Z" fill="#071871"/>
<defs>
<linearGradient id="paint0_linear_101_1773" x1="48" y1="2" x2="48" y2="22.5714" gradientUnits="userSpaceOnUse">
<stop stop-color="#20C0FF"/>
<stop offset="0.620192" stop-color="#2A0671"/>
<stop offset="1" stop-color="#162EAE"/>
</linearGradient>
</defs>
</svg>
