<svg width="32" height="32" viewBox="0 0 32 32" fill="none" xmlns="http://www.w3.org/2000/svg">
<g clip-path="url(#clip0_2_6)">
<path d="M16 32C24.8366 32 32 24.8366 32 16C32 7.16344 24.8366 0 16 0C7.16344 0 0 7.16344 0 16C0 24.8366 7.16344 32 16 32Z" fill="white"/>
<path d="M24.2551 16.9098L25.1551 12.6384H23.3711L23.5861 11.6458H28.4444L28.2294 12.6384H26.4533L25.5454 16.9098H24.2551Z" fill="url(#paint0_linear_2_6)"/>
<path d="M19.7827 14.0146H22.4667L22.2517 14.9922H19.5756L19.7827 14.0146ZM19.2729 16.9098H17.9748L19.0898 11.6458H23.303L23.0879 12.6234H20.1729L19.2729 16.9098Z" fill="url(#paint1_linear_2_6)"/>
<path d="M15.3615 16.9098L16.4765 11.6458H17.7746L16.6596 16.9098H15.3615Z" fill="url(#paint2_linear_2_6)"/>
<path d="M13.8671 11.6458H15.1573L14.0423 16.9098H12.7521L13.8671 11.6458ZM10.2274 16.9098H8.92914L10.0442 11.6458H11.3424L10.2274 16.9098ZM13.3096 14.7516H10.5937L10.8088 13.7213H13.5246L13.3096 14.7516Z" fill="url(#paint3_linear_2_6)"/>
<path d="M5.79356 17C5.49091 17 5.19622 16.9724 4.9095 16.9172C4.62809 16.8671 4.37057 16.797 4.13695 16.7068C3.90864 16.6164 3.71483 16.5188 3.55554 16.4134L4.0812 15.4734C4.25641 15.5888 4.44225 15.689 4.63871 15.7742C4.84048 15.8545 5.05021 15.9172 5.26791 15.9622C5.4856 16.0023 5.70329 16.0224 5.92099 16.0224C6.15992 16.0224 6.36434 15.9973 6.53425 15.9472C6.70947 15.8971 6.84221 15.8268 6.93247 15.7366C7.02805 15.6464 7.07584 15.5361 7.07584 15.4058C7.07584 15.2854 7.02539 15.1877 6.92451 15.1125C6.82363 15.0373 6.69088 14.9747 6.52629 14.9245C6.367 14.8693 6.18912 14.8167 5.99267 14.7666C5.79621 14.7164 5.5971 14.6588 5.39534 14.5936C5.19888 14.5235 5.01835 14.4382 4.85375 14.338C4.69446 14.2326 4.56438 14.0998 4.46349 13.9394C4.36261 13.7789 4.31216 13.5784 4.31216 13.3378C4.31216 12.9768 4.4157 12.6635 4.62278 12.3978C4.83517 12.1321 5.1325 11.9266 5.5148 11.7812C5.8971 11.6308 6.34576 11.5556 6.8608 11.5556C7.23778 11.5556 7.59352 11.5956 7.92803 11.6759C8.26254 11.7511 8.54926 11.8613 8.78819 12.0068L8.30236 12.9392C8.08998 12.8039 7.8537 12.7036 7.59352 12.6384C7.33336 12.5683 7.06521 12.5332 6.78912 12.5332C6.53956 12.5332 6.32452 12.5607 6.144 12.6159C5.96878 12.671 5.83338 12.7487 5.73781 12.849C5.64754 12.9443 5.60241 13.0545 5.60241 13.1798C5.60241 13.3052 5.6502 13.408 5.74577 13.4882C5.84665 13.5634 5.97939 13.6285 6.144 13.6837C6.30859 13.7339 6.48912 13.784 6.68558 13.8341C6.88203 13.8843 7.07849 13.9419 7.27495 14.007C7.4714 14.0723 7.65193 14.1549 7.81653 14.2552C7.98113 14.3555 8.11387 14.4833 8.21475 14.6388C8.31564 14.7892 8.36608 14.9796 8.36608 15.2102C8.36608 15.5712 8.25989 15.887 8.0475 16.1578C7.83511 16.4235 7.53512 16.6316 7.14751 16.782C6.76522 16.9273 6.3139 17 5.79356 17Z" fill="url(#paint4_linear_2_6)"/>
<path d="M22.7753 20.8889C22.543 20.8889 22.3391 20.8417 22.1636 20.7473C21.988 20.6501 21.8507 20.5182 21.7516 20.3516C21.6524 20.1822 21.6028 19.9893 21.6028 19.7727C21.6028 19.5562 21.6496 19.3645 21.743 19.198C21.8393 19.0314 21.9696 18.9009 22.1339 18.8065C22.3009 18.7093 22.4878 18.6607 22.6946 18.6607C22.9041 18.6607 23.0896 18.7079 23.251 18.8023C23.4153 18.8939 23.5442 19.0244 23.6376 19.1938C23.731 19.3604 23.7778 19.5533 23.7778 19.7727C23.7778 19.7866 23.7764 19.8019 23.7735 19.8186C23.7735 19.8324 23.7735 19.8476 23.7735 19.8644H21.8323V19.6436H23.6121L23.4932 19.7311C23.4932 19.5728 23.4578 19.4326 23.3869 19.3104C23.319 19.1855 23.2255 19.0883 23.1066 19.0189C22.9876 18.9495 22.8503 18.9148 22.6946 18.9148C22.5416 18.9148 22.4043 18.9495 22.2825 19.0189C22.1607 19.0883 22.0659 19.1855 21.9979 19.3104C21.93 19.4354 21.8959 19.5784 21.8959 19.7394V19.7852C21.8959 19.9518 21.9328 20.0989 22.0064 20.2267C22.0828 20.3516 22.1876 20.4502 22.3207 20.5224C22.4567 20.5918 22.611 20.6265 22.7837 20.6265C22.9197 20.6265 23.0457 20.6029 23.1619 20.5557C23.2808 20.5085 23.3828 20.4364 23.4676 20.3391L23.6376 20.5307C23.5385 20.6473 23.4139 20.7362 23.2637 20.7972C23.1165 20.8583 22.9537 20.8889 22.7753 20.8889Z" fill="#071871"/>
<path d="M20.1613 20.8681L19.1716 18.6815H19.4859L20.3949 20.7098H20.2463L21.1681 18.6815H21.4654L20.4715 20.8681H20.1613Z" fill="#071871"/>
<path d="M18.4471 20.8681V18.6815H18.7487V20.8681H18.4471ZM18.6 18.1984C18.5377 18.1984 18.4853 18.1776 18.4429 18.1359C18.4004 18.0943 18.3792 18.0443 18.3792 17.986C18.3792 17.9277 18.4004 17.8791 18.4429 17.8403C18.4853 17.7986 18.5377 17.7778 18.6 17.7778C18.6623 17.7778 18.7147 17.7972 18.7572 17.8361C18.7997 17.8749 18.8209 17.9235 18.8209 17.9819C18.8209 18.0429 18.7997 18.0943 18.7572 18.1359C18.7176 18.1776 18.6652 18.1984 18.6 18.1984Z" fill="#071871"/>
<path d="M17.4265 20.8889C17.2169 20.8889 17.0555 20.8333 16.9422 20.7223C16.829 20.6112 16.7723 20.4544 16.7723 20.2517V18.1984H17.0739V20.235C17.0739 20.3628 17.1065 20.4613 17.1717 20.5308C17.2396 20.6001 17.3358 20.6349 17.4605 20.6349C17.5936 20.6349 17.704 20.5973 17.7918 20.5224L17.8981 20.7348C17.8386 20.7876 17.7663 20.8264 17.6813 20.8514C17.5992 20.8764 17.5143 20.8889 17.4265 20.8889ZM16.373 18.9273V18.6815H17.7536V18.9273H16.373Z" fill="#071871"/>
<path d="M15.6133 20.8681V20.385L15.6005 20.3058V19.4979C15.6005 19.3118 15.5468 19.1688 15.4391 19.0689C15.3343 18.9689 15.1772 18.9189 14.9676 18.9189C14.8232 18.9189 14.6858 18.9426 14.5556 18.9898C14.4253 19.037 14.3149 19.0994 14.2242 19.1772L14.0883 18.9564C14.2015 18.862 14.3375 18.7899 14.4961 18.7398C14.6547 18.6871 14.8218 18.6607 14.9973 18.6607C15.2862 18.6607 15.5085 18.7316 15.6643 18.8732C15.8229 19.0119 15.9021 19.2244 15.9021 19.5103V20.8681H15.6133ZM14.8445 20.8889C14.6773 20.8889 14.5315 20.8625 14.4069 20.8098C14.2851 20.7542 14.1917 20.6793 14.1265 20.5849C14.0613 20.4876 14.0288 20.3766 14.0288 20.2516C14.0288 20.1379 14.0557 20.0351 14.1095 19.9435C14.1661 19.8491 14.2568 19.7741 14.3814 19.7186C14.5088 19.6603 14.6788 19.6311 14.8911 19.6311H15.66V19.8518H14.8997C14.6845 19.8518 14.5343 19.8893 14.4493 19.9643C14.3672 20.0393 14.3261 20.1323 14.3261 20.2434C14.3261 20.3683 14.3757 20.4683 14.4749 20.5432C14.574 20.6181 14.7127 20.6556 14.8911 20.6556C15.0611 20.6556 15.2069 20.6181 15.3287 20.5432C15.4533 20.4655 15.5439 20.3544 15.6005 20.21L15.6685 20.4141C15.6119 20.5585 15.5127 20.6737 15.3711 20.7598C15.2324 20.8459 15.0568 20.8889 14.8445 20.8889Z" fill="#071871"/>
<path d="M12.6615 20.8889C12.4293 20.8889 12.2254 20.8417 12.0499 20.7473C11.8742 20.6501 11.7369 20.5182 11.6378 20.3516C11.5387 20.1822 11.4891 19.9893 11.4891 19.7727C11.4891 19.5562 11.5358 19.3645 11.6293 19.198C11.7256 19.0314 11.8558 18.9009 12.0201 18.8065C12.1872 18.7093 12.3741 18.6607 12.5808 18.6607C12.7904 18.6607 12.9759 18.7079 13.1373 18.8023C13.3016 18.8939 13.4304 19.0244 13.5239 19.1938C13.6173 19.3604 13.6641 19.5533 13.6641 19.7727C13.6641 19.7866 13.6627 19.8019 13.6598 19.8186C13.6598 19.8324 13.6598 19.8476 13.6598 19.8644H11.7185V19.6436H13.4984L13.3795 19.7311C13.3795 19.5728 13.344 19.4326 13.2733 19.3104C13.2053 19.1855 13.1118 19.0883 12.9929 19.0189C12.874 18.9495 12.7366 18.9148 12.5808 18.9148C12.4279 18.9148 12.2906 18.9495 12.1688 19.0189C12.047 19.0883 11.9521 19.1855 11.8842 19.3104C11.8162 19.4354 11.7822 19.5784 11.7822 19.7394V19.7852C11.7822 19.9518 11.819 20.0989 11.8926 20.2267C11.9692 20.3516 12.0739 20.4502 12.207 20.5224C12.3429 20.5918 12.4973 20.6265 12.6701 20.6265C12.806 20.6265 12.932 20.6029 13.0481 20.5557C13.167 20.5085 13.269 20.4364 13.354 20.3391L13.5239 20.5307C13.4247 20.6473 13.3002 20.7362 13.1501 20.7972C13.0028 20.8583 12.8399 20.8889 12.6615 20.8889Z" fill="#071871"/>
<path d="M10.0632 20.8681V18.6815H10.3521V19.2771L10.3223 19.173C10.3847 19.0064 10.4895 18.8801 10.6367 18.794C10.7839 18.7052 10.9666 18.6607 11.1847 18.6607V18.9481C11.1734 18.9481 11.162 18.9481 11.1507 18.9481C11.1394 18.9453 11.128 18.9439 11.1167 18.9439C10.8816 18.9439 10.6975 19.0148 10.5645 19.1564C10.4314 19.2952 10.3648 19.4937 10.3648 19.7519V20.8681H10.0632Z" fill="#071871"/>
<path d="M8.59565 20.8889C8.37475 20.8889 8.17652 20.8417 8.00094 20.7473C7.82819 20.6501 7.69225 20.5182 7.59313 20.3516C7.49401 20.1822 7.44446 19.9893 7.44446 19.7727C7.44446 19.5533 7.49401 19.3604 7.59313 19.1938C7.69225 19.0272 7.82819 18.8967 8.00094 18.8023C8.17652 18.7079 8.37475 18.6607 8.59565 18.6607C8.78539 18.6607 8.95672 18.6968 9.10961 18.769C9.26259 18.8412 9.38295 18.9495 9.47068 19.0939L9.24561 19.2438C9.16908 19.1327 9.07424 19.0508 8.96099 18.998C8.84769 18.9453 8.7245 18.9189 8.5914 18.9189C8.43281 18.9189 8.2898 18.955 8.16236 19.0272C8.03492 19.0966 7.93439 19.1952 7.86075 19.3229C7.78713 19.4507 7.75031 19.6005 7.75031 19.7727C7.75031 19.9449 7.78713 20.0947 7.86075 20.2225C7.93439 20.3502 8.03492 20.4502 8.16236 20.5224C8.2898 20.5918 8.43281 20.6265 8.5914 20.6265C8.7245 20.6265 8.84769 20.6001 8.96099 20.5474C9.07424 20.4946 9.16908 20.4141 9.24561 20.3058L9.47068 20.4557C9.38295 20.5973 9.26259 20.7056 9.10961 20.7806C8.95672 20.8528 8.78539 20.8889 8.59565 20.8889Z" fill="#071871"/>
</g>
<defs>
<linearGradient id="paint0_linear_2_6" x1="-33.3967" y1="11.6852" x2="-33.3967" y2="17" gradientUnits="userSpaceOnUse">
<stop stop-color="#00E6FF"/>
<stop offset="0.620192" stop-color="#4C159A"/>
<stop offset="1" stop-color="#2133A2"/>
</linearGradient>
<linearGradient id="paint1_linear_2_6" x1="-6.42202" y1="11.6852" x2="-6.42202" y2="17" gradientUnits="userSpaceOnUse">
<stop stop-color="#00E6FF"/>
<stop offset="0.620192" stop-color="#4C159A"/>
<stop offset="1" stop-color="#2133A2"/>
</linearGradient>
<linearGradient id="paint2_linear_2_6" x1="8.47851" y1="11.6852" x2="8.47851" y2="17" gradientUnits="userSpaceOnUse">
<stop stop-color="#00E6FF"/>
<stop offset="0.620192" stop-color="#4C159A"/>
<stop offset="1" stop-color="#2133A2"/>
</linearGradient>
<linearGradient id="paint3_linear_2_6" x1="31.1672" y1="11.6852" x2="31.1672" y2="17" gradientUnits="userSpaceOnUse">
<stop stop-color="#00E6FF"/>
<stop offset="0.620192" stop-color="#4C159A"/>
<stop offset="1" stop-color="#2133A2"/>
</linearGradient>
<linearGradient id="paint4_linear_2_6" x1="15.8387" y1="11.7711" x2="15.8387" y2="16.9098" gradientUnits="userSpaceOnUse">
<stop stop-color="#00E6FF"/>
<stop offset="0.620192" stop-color="#4C159A"/>
<stop offset="1" stop-color="#2133A2"/>
</linearGradient>
<clipPath id="clip0_2_6">
<rect width="32" height="32" fill="white"/>
</clipPath>
</defs>
</svg>
